<?xml version="1.0" standalone="no"?>
<!DOCTYPE svg PUBLIC "-//W3C//DTD SVG 20010904//EN"
 "http://www.w3.org/TR/2001/REC-SVG-20010904/DTD/svg10.dtd">
<svg version="1.0" xmlns="http://www.w3.org/2000/svg"
 width="791.000000pt" height="780.000000pt" viewBox="0 0 791.000000 780.000000"
 preserveAspectRatio="xMidYMid meet">

<g transform="translate(0.000000,780.000000) scale(0.100000,-0.100000)"
fill="#000000" stroke="none">
<path d="M0 3900 l0 -3900 3955 0 3955 0 0 3900 0 3900 -3955 0 -3955 0 0
-3900z m6053 1891 c44 -29 236 -220 302 -300 98 -120 102 -126 83 -118 -11 4
-22 -1 -30 -12 -7 -10 -22 -21 -33 -23 -11 -2 -19 -10 -17 -17 2 -9 -3 -11
-13 -7 -18 7 -49 -19 -59 -49 -4 -13 -31 -31 -76 -50 -38 -16 -72 -37 -75 -45
-3 -8 -15 -20 -27 -25 -13 -6 -24 -20 -26 -32 -2 -13 -8 -23 -13 -23 -5 0 -9
-13 -9 -29 0 -17 -4 -33 -10 -36 -6 -4 -10 7 -10 25 0 29 -1 30 -16 16 -8 -9
-24 -21 -35 -26 -10 -6 -19 -15 -19 -21 0 -6 5 -7 11 -3 7 4 10 1 7 -7 -3 -8
-13 -13 -22 -11 -10 2 -34 -9 -54 -25 -20 -15 -44 -27 -52 -25 -12 2 -12 1 -2
-6 12 -8 12 -13 1 -31 -8 -11 -18 -21 -22 -21 -5 0 -7 -7 -3 -15 3 -8 0 -15
-6 -15 -6 0 -8 -3 -5 -6 3 -4 2 -15 -3 -24 -11 -21 -2 -80 12 -80 5 0 6 5 3
10 -3 6 -1 10 4 10 17 0 13 -37 -4 -44 -8 -3 -15 -13 -15 -23 -1 -14 -4 -13
-15 7 -11 19 -14 21 -15 8 0 -13 -8 -18 -31 -18 -28 0 -29 -1 -14 -16 9 -9 13
-19 10 -22 -3 -4 -10 0 -14 7 -7 10 -11 10 -22 -3 -8 -9 -20 -23 -26 -31 -7
-7 -13 -18 -13 -24 0 -6 -4 -11 -10 -11 -5 0 -10 15 -11 33 0 30 -1 31 -11 10
-6 -13 -18 -23 -27 -23 -11 0 -12 -3 -4 -8 8 -5 9 -13 3 -22 -12 -18 -13 -41
-2 -38 7 1 21 -4 67 -22 14 -5 3 -9 -39 -11 -69 -5 -98 9 -77 35 7 9 17 13 22
10 5 -3 9 2 9 12 0 15 -2 15 -25 0 -18 -12 -30 -14 -43 -7 -9 5 -123 117 -252
248 -246 248 -260 268 -260 351 0 25 9 38 48 69 26 21 52 43 57 49 13 14 286
181 322 197 16 7 45 25 64 41 20 16 57 40 82 55 81 47 140 83 227 140 144 95
182 106 233 72z m-2149 -355 c49 -13 62 -13 107 0 58 17 89 13 44 -7 -56 -24
-202 -9 -221 23 -4 6 -2 8 3 5 6 -4 36 -13 67 -21z m-604 -496 c-19 -13 -30
-13 -30 0 0 6 10 10 23 10 18 0 19 -2 7 -10z m1180 -110 c-7 -5 -2 -9 14 -12
14 -3 29 -1 34 4 11 11 82 -18 98 -40 6 -9 10 -21 7 -27 -20 -53 127 -233 342
-418 120 -103 261 -244 312 -312 25 -33 49 -65 54 -70 5 -7 0 -11 -12 -12 -10
-1 -19 3 -19 8 0 6 -5 7 -11 4 -6 -5 -4 -11 7 -19 10 -8 14 -18 9 -26 -6 -10
-9 -9 -17 1 -8 11 -9 11 -5 -1 2 -8 14 -14 26 -14 16 1 19 -2 10 -12 -6 -7
-16 -11 -23 -8 -15 6 -46 -21 -46 -39 0 -7 5 -4 11 6 6 9 14 15 20 12 5 -4 9
-1 9 5 0 6 4 9 10 5 5 -3 6 -13 3 -23 -3 -10 6 -5 23 12 16 17 34 48 41 70 9
34 11 37 12 14 1 -32 -16 -80 -32 -90 -7 -4 -12 -13 -12 -19 0 -7 -8 -13 -18
-15 -9 -1 -32 -15 -51 -31 -18 -15 -104 -80 -191 -143 -87 -63 -187 -137 -224
-164 -170 -127 -187 -136 -252 -136 -73 0 -139 31 -201 93 -63 64 -401 418
-493 517 -44 47 -110 116 -148 154 -104 105 -115 127 -64 131 12 2 21 8 20 14
-3 10 10 15 30 12 4 0 7 4 7 9 0 6 7 10 15 10 8 0 15 5 15 10 0 6 6 10 13 9
25 -3 38 1 32 11 -3 6 1 10 9 10 9 0 16 5 16 10 0 6 5 10 10 10 6 0 16 4 23
10 61 50 80 63 73 51 -5 -7 5 -3 23 10 22 16 28 25 19 31 -9 5 -7 8 7 6 36 -2
55 2 55 13 0 11 25 39 35 39 16 0 87 94 78 103 -3 4 -1 7 5 7 7 0 12 7 12 16
0 9 7 22 15 28 9 6 28 36 43 66 40 80 134 134 210 121 15 -2 20 -6 12 -11z
m1163 -254 c4 -10 1 -13 -8 -9 -8 3 -12 9 -9 14 7 12 11 11 17 -5z m392 -392
c-11 -8 -28 -21 -38 -29 -9 -8 -21 -15 -26 -15 -5 0 -12 -8 -15 -17 -6 -15 -8
-15 -16 -3 -8 13 -10 12 -10 -2 0 -16 -11 -23 -32 -19 -5 0 -8 -6 -8 -15 0 -8
5 -12 10 -9 6 3 10 1 10 -6 0 -6 -8 -9 -20 -6 -13 3 -26 -3 -39 -19 -10 -13
-23 -24 -28 -24 -5 0 -19 -10 -31 -22 -32 -36 -49 -47 -56 -40 -4 3 -10 2 -14
-4 -4 -5 -20 -17 -35 -27 -15 -10 -25 -22 -22 -27 4 -6 1 -10 -5 -10 -7 0 -10
-6 -7 -13 2 -6 -2 -18 -9 -25 -12 -11 -14 -9 -14 9 0 21 -1 21 -18 6 -10 -10
-22 -14 -25 -11 -4 4 -10 -1 -14 -11 -3 -10 -15 -27 -25 -37 -15 -15 -19 -16
-24 -4 -10 25 14 53 89 108 84 63 223 158 234 161 4 1 7 5 6 10 -2 4 4 7 12 7
8 0 15 5 15 10 0 6 5 10 12 10 7 0 23 11 37 24 33 30 114 77 121 70 3 -3 -4
-12 -15 -20z m-302 -259 c-3 -9 -8 -14 -10 -11 -3 3 -2 9 2 15 9 16 15 13 8
-4z m-33 -20 c0 -8 -4 -15 -10 -15 -5 0 -10 7 -10 15 0 8 5 15 10 15 6 0 10
-7 10 -15z m870 -25 c0 -5 -4 -10 -10 -10 -5 0 -10 5 -10 10 0 6 5 10 10 10 6
0 10 -4 10 -10z m-1250 -94 c0 -2 -8 -10 -17 -17 -16 -13 -17 -12 -4 4 13 16
21 21 21 13z m220 -38 c0 -19 -2 -20 -10 -8 -13 19 -13 30 0 30 6 0 10 -10 10
-22z m-250 -2 c0 -2 -8 -10 -17 -17 -16 -13 -17 -12 -4 4 13 16 21 21 21 13z
m-50 -60 c0 -2 -8 -10 -17 -17 -16 -13 -17 -12 -4 4 13 16 21 21 21 13z
m-1976 -300 c20 -18 38 -31 41 -28 3 3 5 -1 5 -9 0 -8 8 -22 18 -31 9 -9 23
-24 30 -32 7 -9 19 -13 29 -9 10 4 14 2 9 -5 -3 -6 5 -23 19 -38 14 -15 25
-23 25 -19 0 4 13 -10 29 -31 16 -21 53 -62 84 -91 30 -28 52 -55 49 -59 -4
-4 1 -4 11 -1 10 4 16 3 12 -2 -3 -5 5 -17 17 -25 12 -9 20 -16 17 -16 -3 0
18 -26 48 -57 162 -173 244 -254 253 -248 5 3 7 0 4 -7 -3 -7 -55 -51 -115
-98 -60 -47 -140 -110 -177 -141 -37 -31 -101 -82 -142 -113 -41 -32 -139
-108 -218 -170 -238 -184 -256 -192 -324 -138 -33 26 -293 308 -333 361 -11
14 -86 93 -167 175 -81 82 -145 153 -142 157 3 5 -1 9 -8 9 -7 1 -31 22 -52
48 -22 26 -33 41 -26 35 20 -19 26 -16 49 20 11 18 32 39 45 47 14 7 23 17 20
22 -3 4 0 8 7 8 7 0 10 2 7 5 -3 3 -18 1 -34 -5 l-29 -10 25 20 c14 11 28 20
33 20 4 0 7 7 7 16 0 8 -4 12 -10 9 -5 -3 -10 -2 -10 2 0 9 84 76 135 108 17
10 37 25 45 34 8 9 21 17 29 19 8 2 23 9 33 16 18 13 18 14 -7 18 -14 3 -28 1
-32 -5 -4 -6 -1 -7 8 -2 8 5 11 4 6 -1 -5 -5 -12 -8 -15 -8 -4 1 -31 -11 -59
-27 -36 -20 -51 -25 -47 -14 4 8 10 15 16 15 5 0 30 14 55 31 35 24 42 34 32
41 -11 7 -10 8 4 4 20 -7 77 19 77 35 0 6 -8 6 -21 -2 -15 -8 -19 -8 -15 0 4
6 16 16 28 22 15 8 19 8 14 0 -12 -19 7 -12 56 22 27 17 46 37 44 42 -2 6 10
10 26 10 22 0 28 -4 25 -17 -3 -11 0 -15 10 -11 8 3 19 0 24 -8 7 -11 9 -11 9
3 0 12 5 15 17 11 11 -4 14 -3 9 5 -4 7 -2 12 3 12 6 0 11 -7 11 -15 0 -9 7
-18 14 -21 19 -7 77 27 69 40 -3 6 -3 8 2 4 4 -4 17 -3 28 3 12 7 17 7 13 1
-3 -5 1 -13 10 -16 18 -7 76 33 67 47 -3 6 -1 7 5 3 6 -4 35 9 64 29 29 19 56
35 60 35 3 0 23 -15 42 -34z m-114 4 c0 -5 -5 -10 -11 -10 -5 0 -7 5 -4 10 3
6 8 10 11 10 2 0 4 -4 4 -10z m-410 -24 c0 -2 -8 -10 -17 -17 -16 -13 -17 -12
-4 4 13 16 21 21 21 13z m3520 -11 c0 -15 -38 -40 -48 -31 -6 6 28 44 41 45 4
1 7 -6 7 -14z m-3423 -30 c0 -8 -4 -12 -9 -9 -5 3 -6 10 -3 15 9 13 12 11 12
-6z m92 -31 c-6 -8 -17 -14 -23 -14 -6 0 -3 5 7 11 9 6 14 15 11 21 -4 7 -2 8
5 4 9 -6 9 -11 0 -22z m-205 7 c3 -5 -2 -15 -12 -22 -15 -12 -16 -12 -5 2 7 9
10 19 6 22 -3 4 -4 7 0 7 3 0 8 -4 11 -9z m3546 -5 c0 -1 -12 -13 -27 -27 -16
-13 -23 -18 -16 -10 6 7 9 19 7 25 -2 6 5 12 16 13 11 1 20 1 20 -1z m-1388
-116 c-1 -13 -7 -27 -12 -30 -5 -3 -11 -15 -13 -25 -1 -11 -6 -26 -11 -33 -4
-7 -5 -24 -2 -38 4 -13 3 -24 -2 -24 -28 0 37 -220 74 -251 8 -6 14 -19 14
-29 0 -10 7 -21 16 -24 8 -3 24 -26 35 -51 11 -25 24 -43 30 -40 5 4 9 -1 9
-9 0 -8 -8 -20 -17 -25 -23 -13 -2 -14 31 -1 28 10 34 2 14 -18 -9 -9 -9 -15
0 -24 9 -9 12 -9 12 3 0 7 6 3 13 -11 12 -22 11 -26 -7 -37 -16 -9 -17 -12 -5
-13 17 0 22 -30 5 -30 -6 0 -57 46 -112 103 -56 56 -139 139 -185 184 -208
202 -257 263 -244 301 7 22 147 121 194 139 20 7 65 12 101 10 63 -2 65 -3 62
-27z m1228 10 c0 -5 -2 -10 -4 -10 -3 0 -8 5 -11 10 -3 6 -1 10 4 10 6 0 11
-4 11 -10z m-1004 -751 c19 -22 19 -22 -3 -10 -13 6 -23 16 -23 21 0 15 5 12
26 -11z m129 -125 c14 -14 25 -30 23 -35 -2 -6 -19 6 -38 26 -18 19 -29 35
-22 35 6 0 23 -12 37 -26z m56 -71 c13 -16 12 -17 -3 -4 -17 13 -22 21 -14 21
2 0 10 -8 17 -17z m999 -676 c0 -2 -10 -12 -22 -23 l-23 -19 19 23 c18 21 26
27 26 19z m-114 -112 c-40 -34 -46 -31 -11 5 16 16 31 27 34 24 3 -2 -8 -16
-23 -29z"/>
<path d="M5570 4540 c0 -12 28 -21 35 -11 2 5 -4 11 -15 14 -11 3 -20 2 -20
-3z"/>
<path d="M5285 3829 c-10 -15 3 -25 16 -12 7 7 7 13 1 17 -6 3 -14 1 -17 -5z"/>
<path d="M5245 3811 c-6 -11 13 -26 22 -17 4 3 0 6 -8 6 -11 0 -11 2 1 10 9 6
10 10 3 10 -6 0 -14 -4 -18 -9z"/>
<path d="M2975 3290 c-17 -19 -17 -19 9 -7 14 7 26 15 26 20 0 13 -17 7 -35
-13z"/>
<path d="M2690 3210 c-13 -8 -12 -10 3 -10 9 0 17 5 17 10 0 12 -1 12 -20 0z"/>
<path d="M2648 3178 c9 -9 15 -9 24 0 9 9 7 12 -12 12 -19 0 -21 -3 -12 -12z"/>
<path d="M2615 3170 c-3 -5 1 -10 10 -10 9 0 13 5 10 10 -3 6 -8 10 -10 10 -2
0 -7 -4 -10 -10z"/>
<path d="M2319 2811 c-18 -21 -23 -34 -17 -45 12 -21 27 -20 23 2 -1 9 4 29
12 45 17 34 14 34 -18 -2z"/>
<path d="M2335 2790 c-3 -5 1 -10 9 -10 9 0 16 5 16 10 0 6 -4 10 -9 10 -6 0
-13 -4 -16 -10z"/>
</g>
</svg>
